<svg id="Layer_1" data-name="Layer 1" xmlns="http://www.w3.org/2000/svg" viewBox="0 0 28 28"><defs><style>.cls-1{fill:#231f20;}</style></defs><title>CarBee-BrokenCar</title><path class="cls-1" d="M28,17.06a0.43,0.43,0,0,1-.44.44H26.25v1.75a2.63,2.63,0,0,1-5.25,0V17.5H7v1.75a2.63,2.63,0,0,1-5.25,0V17.5H0.44A0.43,0.43,0,0,1,0,17.06V11.81A3.06,3.06,0,0,1,3.06,8.75H3.45L4.88,3A4.08,4.08,0,0,1,8.75,0h10.5a4.08,4.08,0,0,1,3.87,3l1.44,5.73h0.38A3.06,3.06,0,0,1,28,11.81v5.25ZM4.38,10.94a2.19,2.19,0,1,0,2.19,2.19A2.19,2.19,0,0,0,4.38,10.94ZM20.95,8.75L19.73,3.87a0.66,0.66,0,0,0-.48-0.37H8.75a0.66,0.66,0,0,0-.48.37L7.05,8.75H20.95Zm2.68,2.19a2.19,2.19,0,1,0,2.19,2.19A2.19,2.19,0,0,0,23.63,10.94Z"/><path class="cls-1" d="M23.16,26.25H14.88V21h3.28a0.45,0.45,0,0,0,.45-0.45V19.7a0.45,0.45,0,0,0-.45-0.45H9.84a0.45,0.45,0,0,0-.45.45v0.85a0.45,0.45,0,0,0,.45.45h3.28v5.25H4.84a0.45,0.45,0,0,0-.45.45v0.85a0.45,0.45,0,0,0,.45.45H23.16a0.45,0.45,0,0,0,.45-0.45V26.7A0.45,0.45,0,0,0,23.16,26.25Z"/></svg>