<svg id="Layer_1" data-name="Layer 1" xmlns="http://www.w3.org/2000/svg" viewBox="0 0 31.51 24.37"><defs><style>.cls-1{fill:#fff;}</style></defs><title>CarBee-LowBatteryW</title><path class="cls-1" d="M29.75,7.81V5.63a2.19,2.19,0,0,0-1.92-2.16L29.41,2.1a0.46,0.46,0,0,0,0-.63L28.3,0.16A0.44,0.44,0,0,0,27.69.1L23.84,3.44H2.19A2.19,2.19,0,0,0,0,5.63H0V18.75a2.19,2.19,0,0,0,2.19,2.19H3.65L2.09,22.29a0.45,0.45,0,0,0,0,.62L3.2,24.22a0.44,0.44,0,0,0,.62,0l3.85-3.34h19.9a2.19,2.19,0,0,0,2.19-2.19h0V16.56a1.74,1.74,0,0,0,1.75-1.73s0,0,0,0V9.56a1.74,1.74,0,0,0-1.73-1.75h0ZM2.19,19.19a0.43,0.43,0,0,1-.44-0.42s0,0,0,0V5.63a0.43,0.43,0,0,1,.42-0.44H21.82l-16.15,14H2.19Zm27.56-4.37H28v3.94a0.43,0.43,0,0,1-.42.44H9.68l16.16-14h1.72a0.43,0.43,0,0,1,.44.42s0,0,0,0V9.56h1.75v5.25h0Z"/></svg>